# xmcd
#
# Track frame offsets:
#	150
#	27832
#	43237
#	60972
#	75389
#	98639
#	115382
#	133021
#	168510
#	181917
#	204974
#	232695
#	252256
#	279314
#
# Disc length: 4045 seconds
#
# Revision: 1
# Processed by: cddbd v1.5.2PL0 Copyright (c) Steve Scherf et al.
# Submitted via: EZCDAudioConverter 2.1.7.1
#
DISCID=ab0fcb0e
DTITLE=V/A - Dave Gilmour and Friends
DYEAR=2015
DGENRE=
TTITLE0=Davis Crosby and Graham Nash - Don't Dig Here
TTITLE1=Ulver - Everybody's Been Burned
TTITLE2=Phil Manzanera - Sacred Days
TTITLE3=David and Joe Gilmour - Here, There And Everywhere
TTITLE4=David Courtney - When Your Life Is Your Own
TTITLE5=Ben Watt - The Levels
TTITLE6=Steven Wilson - Lazarus
TTITLE7=Robert Wyatt - Forest
TTITLE8=Dungen - Åkt Dit
TTITLE9=Richard Barbieri - Nevada
TTITLE10=BJ Cole - The Interloper
TTITLE11=The Orb - Moon Quake 6
TTITLE12=Ozric Tentacles - Changa Masala
TTITLE13=Pretty Things - Old Man Going
EXTD=
EXTT0=
EXTT1=
EXTT2=
EXTT3=
EXTT4=
EXTT5=
EXTT6=
EXTT7=
EXTT8=
EXTT9=
EXTT10=
EXTT11=
EXTT12=
EXTT13=
PLAYORDER=
